<svg xmlns="http://www.w3.org/2000/svg" xmlns:xlink="http://www.w3.org/1999/xlink" version="1.1" id="Layer_1" x="0px" y="0px" width="90px" height="90px" viewBox="0 0 90 90" enable-background="new 0 0 90 90" xml:space="preserve">
<path d="M4.85,50.371v-11.2c0-10.501,7.601-14.802,11.2-16.302v6.501c-3.1,1.7-5.5,4-5.5,9.801h5.5v11.2H4.85z M23.051,50.371v-11.2  c0-10.501,7.601-14.802,11.2-16.302v6.501c-3.1,1.7-5.5,4-5.5,9.801h5.5v11.2H23.051z"/>
<path d="M66.949,42.869V54.07c0,10.501-7.601,14.801-11.2,16.301v-6.5c3.1-1.7,5.5-4.001,5.5-9.801h-5.5V42.869H66.949z   M85.15,42.869V54.07c0,10.501-7.601,14.801-11.2,16.301v-6.5c3.1-1.7,5.5-4.001,5.5-9.801h-5.5V42.869H85.15z"/>
</svg>